<?xml version="1.0" encoding="UTF-8" standalone="no"?>
<svg
   xmlns:dc="http://purl.org/dc/elements/1.1/"
   xmlns:cc="http://creativecommons.org/ns#"
   xmlns:rdf="http://www.w3.org/1999/02/22-rdf-syntax-ns#"
   xmlns:svg="http://www.w3.org/2000/svg"
   xmlns="http://www.w3.org/2000/svg"
   xmlns:xlink="http://www.w3.org/1999/xlink"
   xmlns:sodipodi="http://sodipodi.sourceforge.net/DTD/sodipodi-0.dtd"
   xmlns:inkscape="http://www.inkscape.org/namespaces/inkscape"
   viewBox="0 0 189.70747 149.83336"
   id="svg2"
   version="1.1"
   inkscape:version="0.91 r13725"
   sodipodi:docname="blackboard-156494.svg">
  <metadata
     id="metadata165">
    <rdf:RDF>
      <cc:Work
         rdf:about="">
        <dc:format>image/svg+xml</dc:format>
        <dc:type
           rdf:resource="http://purl.org/dc/dcmitype/StillImage" />
      </cc:Work>
    </rdf:RDF>
  </metadata>
  <sodipodi:namedview
     pagecolor="#ffffff"
     bordercolor="#666666"
     borderopacity="1"
     objecttolerance="10"
     gridtolerance="10"
     guidetolerance="10"
     inkscape:pageopacity="0"
     inkscape:pageshadow="2"
     inkscape:window-width="1920"
     inkscape:window-height="955"
     id="namedview163"
     showgrid="false"
     inkscape:zoom="4"
     inkscape:cx="60.115507"
     inkscape:cy="92.80757"
     inkscape:window-x="0"
     inkscape:window-y="1"
     inkscape:window-maximized="1"
     inkscape:current-layer="svg2" />
  <defs
     id="defs4">
    <filter
       id="filter4003">
      <feGaussianBlur
         stdDeviation="8.4001"
         id="feGaussianBlur7" />
    </filter>
    <linearGradient
       id="linearGradient3989">
      <stop
         offset="0"
         stop-color="#fff"
         id="stop10" />
      <stop
         offset="1"
         stop-color="#fff"
         stop-opacity="0"
         id="stop12" />
    </linearGradient>
    <linearGradient
       id="linearGradient3881">
      <stop
         offset="0"
         stop-color="#2b1100"
         id="stop15" />
      <stop
         offset="1"
         stop-color="#2b1100"
         stop-opacity="0"
         id="stop17" />
    </linearGradient>
    <linearGradient
       gradientUnits="userSpaceOnUse"
       id="linearGradient3857"
       x1="-520.64075"
       x2="-522.05115"
       xlink:href="#linearGradient3881"
       y1="-110.01133"
       y2="60.64727"
       gradientTransform="matrix(0,-0.2828,0.2828,0,2.31304,-77.67413)" />
    <linearGradient
       gradientUnits="userSpaceOnUse"
       id="linearGradient3867"
       x1="307.46756"
       x2="308.87796"
       xlink:href="#linearGradient3881"
       y1="192.01717"
       y2="337.28854"
       gradientTransform="matrix(0.2828,0,0,0.2828,2.31304,-77.67413)" />
    <linearGradient
       gradientUnits="userSpaceOnUse"
       id="linearGradient3877"
       x1="287.72195"
       x2="290.54276"
       xlink:href="#linearGradient3881"
       y1="894.39722"
       y2="729.38019"
       gradientTransform="matrix(0.2828,0,0,0.2828,2.31304,-77.67413)" />
    <linearGradient
       gradientUnits="userSpaceOnUse"
       id="linearGradient3887"
       x2="0"
       xlink:href="#linearGradient3881"
       y1="727.76727"
       y2="585.31671"
       gradientTransform="matrix(0,-0.2828,0.2828,0,2.31304,-77.67413)" />
    <linearGradient
       gradientUnits="userSpaceOnUse"
       id="linearGradient3995"
       x2="0"
       xlink:href="#linearGradient3989"
       y1="242.27855"
       y2="392.58963"
       gradientTransform="matrix(0.2828,0,0,0.2828,2.31304,-77.67413)" />
    <linearGradient
       gradientUnits="userSpaceOnUse"
       id="linearGradient3999"
       x1="-164.94313"
       x2="119.7168"
       xlink:href="#linearGradient3989"
       y1="557.53278"
       y2="549.55164"
       gradientTransform="matrix(0.2828,0,0,0.2828,2.31304,-77.67413)" />
  </defs>
  <path
     style="filter:url(#filter4003)"
     inkscape:connector-curvature="0"
     id="path27"
     d="m 43.9056,294.82562 566.65946,0 a 31.92448,31.92448 0 0 1 31.92448,31.92448 l 0,425.65971 a 31.92448,31.92448 0 0 1 -31.92448,31.92448 l -566.65946,0 A 31.92448,31.92448 0 0 1 11.98112,752.40981 l 0,-425.65971 A 31.92448,31.92448 0 0 1 43.9056,294.82562"
     transform="matrix(0.2828,0,0,0.2828,2.31304,-77.67413)" />
  <path
     style="fill-opacity:0.98130002"
     inkscape:connector-curvature="0"
     id="path29"
     d="m 9.5850412,25.609905 171.2960188,0 0,103.827995 -171.2960188,0 z" />
  <path
     inkscape:connector-curvature="0"
     style="fill:url(#linearGradient3999)"
     id="path31"
     d="m 9.5850412,25.609905 171.2960188,0 0,103.827995 -171.2960188,0 z" />
  <path
     inkscape:connector-curvature="0"
     style="fill:url(#linearGradient3995)"
     id="path33"
     d="m 9.5850412,25.609905 171.2960188,0 0,103.827995 -171.2960188,0 z" />
  <path
     style="fill:#aa4400"
     inkscape:connector-curvature="0"
     id="path35"
     d="m 19.082828,4.9224091 c -5.819215,0 -10.5077872,3.690738 -10.5077872,8.2714929 l 0,14.142933 c 0.6525638,-0.09916 1.3333539,-0.153046 2.0237872,-0.153046 l 171.694952,0 0,-13.989887 c 0,-4.5807549 -4.67974,-8.2714929 -10.49895,-8.2714929 l -152.712002,0 z" />
  <path
     style="fill:#aa4400"
     inkscape:connector-curvature="0"
     id="path37"
     d="m 171.78599,143.85043 c 5.81922,0 10.50779,-3.55769 10.50779,-7.97332 l 0,-13.6331 c -0.65257,0.0956 -1.33336,0.14753 -2.02379,0.14753 l -171.6949492,0 0,13.48557 c 0,4.41563 4.6797352,7.97332 10.4989502,7.97332 l 152.711999,0 z" />
  <path
     style="fill:#aa4400"
     inkscape:connector-curvature="0"
     id="path39"
     d="m 8.5750408,122.44871 0,-95.344006 20.6040022,0 0,95.344006 z" />
  <path
     style="fill:#aa4400"
     inkscape:connector-curvature="0"
     id="path41"
     d="m 161.68978,122.44871 0,-95.344006 20.604,0 0,95.344006 z" />
  <g
     style="opacity:0.05"
     id="g43"
     transform="matrix(0.2828,0,0,0.2828,2.31304,-77.67413)">
    <path
       style="fill:#2b1100"
       inkscape:connector-curvature="0"
       id="path45"
       transform="matrix(0.24557,0,0,1.24665,113.62275,-410.48134)"
       d="m -132.85715,627.36218 c 0,105.32859 -38.69539,190.71428 -86.42857,190.71428 -47.72044,0 -86.41055,-85.3418 -86.42857,-190.64225" />
    <path
       style="fill:#ff6600"
       inkscape:connector-curvature="0"
       id="path47"
       transform="matrix(0.20653,0,0,1.04845,105.0616,-285.60446)"
       d="m -132.85715,627.36218 c 0,105.32859 -38.69539,190.71428 -86.42857,190.71428 -47.73318,0 -86.42857,-85.38569 -86.42857,-190.71428 0,-0.1695 1e-4,-0.339 3e-4,-0.50851" />
    <path
       style="fill:#ff9955"
       inkscape:connector-curvature="0"
       id="path49"
       transform="matrix(0.16438,0,0,0.83449,95.82,-151.91083)"
       d="m -132.85715,627.36218 c 0,105.32859 -38.69539,190.71428 -86.42857,190.71428 -47.64093,0 -86.298,-85.06823 -86.42825,-190.19285" />
    <path
       style="fill:#d45500"
       inkscape:connector-curvature="0"
       id="path51"
       transform="matrix(0.12582,0,0,0.63872,87.36393,-28.91329)"
       d="m -132.85715,627.36218 c 0,105.32859 -38.69539,190.71428 -86.42857,190.71428 -47.73318,0 -86.42857,-85.38569 -86.42857,-190.71428 0,-0.094 3e-5,-0.18803 9e-5,-0.28205" />
  </g>
  <g
     style="opacity:0.05"
     id="g53"
     transform="matrix(0.09548742,0,0,0.11194072,190.53519,40.064339)">
    <path
       style="fill:#2b1100"
       inkscape:connector-curvature="0"
       id="path55"
       d="m -88.76011,505.83926 c 0,87.02579 -17.63708,157.57413 -39.39353,157.57413 -21.75645,0 -39.39353,-70.54834 -39.39353,-157.57413 0,-87.02579 17.63708,-157.57412 39.39353,-157.57412 21.75645,0 39.39353,70.54834 39.39353,157.57412 z" />
    <path
       style="fill:#aa4400"
       inkscape:connector-curvature="0"
       id="path57"
       transform="matrix(0.63291,0,0,0.76899,-47.04374,116.85527)"
       d="m -88.76011,505.83926 c 0,87.02579 -17.63708,157.57413 -39.39353,157.57413 -21.75645,0 -39.39353,-70.54834 -39.39353,-157.57413 0,-87.02579 17.63708,-157.57412 39.39353,-157.57412 21.75645,0 39.39353,70.54834 39.39353,157.57412 z" />
    <path
       style="fill:#ff6600"
       inkscape:connector-curvature="0"
       id="path59"
       transform="matrix(0.41772,0,0,0.61392,-74.62111,195.29237)"
       d="m -88.76011,505.83926 c 0,87.02579 -17.63708,157.57413 -39.39353,157.57413 -21.75645,0 -39.39353,-70.54834 -39.39353,-157.57413 0,-87.02579 17.63708,-157.57412 39.39353,-157.57412 21.75645,0 39.39353,70.54834 39.39353,157.57412 z" />
  </g>
  <g
     style="opacity:0.05"
     id="g61"
     transform="matrix(0.09548742,0,0,0.11194072,177.93836,-6.2036075)">
    <path
       style="fill:#2b1100"
       inkscape:connector-curvature="0"
       id="path63"
       d="m -88.76011,505.83926 c 0,87.02579 -17.63708,157.57413 -39.39353,157.57413 -21.75645,0 -39.39353,-70.54834 -39.39353,-157.57413 0,-87.02579 17.63708,-157.57412 39.39353,-157.57412 21.75645,0 39.39353,70.54834 39.39353,157.57412 z" />
    <path
       style="fill:#aa4400"
       inkscape:connector-curvature="0"
       id="path65"
       transform="matrix(0.63291,0,0,0.76899,-47.04374,116.85527)"
       d="m -88.76011,505.83926 c 0,87.02579 -17.63708,157.57413 -39.39353,157.57413 -21.75645,0 -39.39353,-70.54834 -39.39353,-157.57413 0,-87.02579 17.63708,-157.57412 39.39353,-157.57412 21.75645,0 39.39353,70.54834 39.39353,157.57412 z" />
    <path
       style="fill:#ff6600"
       inkscape:connector-curvature="0"
       id="path67"
       transform="matrix(0.41772,0,0,0.61392,-74.62111,195.29237)"
       d="m -88.76011,505.83926 c 0,87.02579 -17.63708,157.57413 -39.39353,157.57413 -21.75645,0 -39.39353,-70.54834 -39.39353,-157.57413 0,-87.02579 17.63708,-157.57412 39.39353,-157.57412 21.75645,0 39.39353,70.54834 39.39353,157.57412 z" />
  </g>
  <g
     style="opacity:0.05"
     id="g69"
     transform="matrix(0.2828,0,0,0.2828,2.31304,-77.67413)">
    <path
       style="fill:#2b1100"
       inkscape:connector-curvature="0"
       id="path71"
       transform="matrix(0,0.16397,-0.47753,0,933.79394,778.91435)"
       d="m -132.85715,627.36218 c 0,105.32859 -38.69539,190.71428 -86.42857,190.71428 -47.72044,0 -86.41055,-85.3418 -86.42857,-190.64225" />
    <path
       style="fill:#ff6600"
       inkscape:connector-curvature="0"
       id="path73"
       transform="matrix(0,0.1379,-0.40161,0,885.9597,773.19776)"
       d="m -132.85715,627.36218 c 0,105.32859 -38.69539,190.71428 -86.42857,190.71428 -47.73318,0 -86.42857,-85.38569 -86.42857,-190.71428 0,-0.1695 1e-4,-0.339 3e-4,-0.50851" />
    <path
       style="fill:#ff9955"
       inkscape:connector-curvature="0"
       id="path75"
       transform="matrix(0,0.10976,-0.31965,0,834.74819,767.02681)"
       d="m -132.85715,627.36218 c 0,105.32859 -38.69539,190.71428 -86.42857,190.71428 -47.64093,0 -86.298,-85.06823 -86.42825,-190.19285" />
    <path
       style="fill:#d45500"
       inkscape:connector-curvature="0"
       id="path77"
       transform="matrix(0,0.08401,-0.24466,0,787.63384,761.3804)"
       d="m -132.85715,627.36218 c 0,105.32859 -38.69539,190.71428 -86.42857,190.71428 -47.73318,0 -86.42857,-85.38569 -86.42857,-190.71428 0,-0.094 3e-5,-0.18803 9e-5,-0.28205" />
  </g>
  <g
     style="opacity:0.05"
     id="g79"
     transform="matrix(0.2828,0,0,0.2828,2.31304,-77.67413)">
    <path
       style="fill:#2b1100"
       inkscape:connector-curvature="0"
       id="path81"
       transform="matrix(2.29356,0,0,0.27046,815.88623,122.95969)"
       d="m -132.85715,627.36218 c 0,105.32859 -38.69539,190.71428 -86.42857,190.71428 -47.72044,0 -86.41055,-85.3418 -86.42857,-190.64225" />
    <path
       style="fill:#ff6600"
       inkscape:connector-curvature="0"
       id="path83"
       transform="matrix(1.92892,0,0,0.22746,735.92646,150.05168)"
       d="m -132.85715,627.36218 c 0,105.32859 -38.69539,190.71428 -86.42857,190.71428 -47.73318,0 -86.42857,-85.38569 -86.42857,-190.71428 0,-0.1695 1e-4,-0.339 3e-4,-0.50851" />
    <path
       style="fill:#ff9955"
       inkscape:connector-curvature="0"
       id="path85"
       transform="matrix(1.53529,0,0,0.18104,649.61139,179.05646)"
       d="m -132.85715,627.36218 c 0,105.32859 -38.69539,190.71428 -86.42857,190.71428 -47.64093,0 -86.298,-85.06823 -86.42825,-190.19285" />
    <path
       style="fill:#d45500"
       inkscape:connector-curvature="0"
       id="path87"
       transform="matrix(1.17512,0,0,0.13857,570.63315,205.74073)"
       d="m -132.85715,627.36218 c 0,105.32859 -38.69539,190.71428 -86.42857,190.71428 -47.73318,0 -86.42857,-85.38569 -86.42857,-190.71428 0,-0.094 3e-5,-0.18803 9e-5,-0.28205" />
  </g>
  <g
     style="opacity:0.05"
     id="g89"
     transform="matrix(0.56123922,0,0,0.03473632,108.6272,116.01161)">
    <path
       style="fill:#2b1100"
       inkscape:connector-curvature="0"
       id="path91"
       d="m -88.76011,505.83926 c 0,87.02579 -17.63708,157.57413 -39.39353,157.57413 -21.75645,0 -39.39353,-70.54834 -39.39353,-157.57413 0,-87.02579 17.63708,-157.57412 39.39353,-157.57412 21.75645,0 39.39353,70.54834 39.39353,157.57412 z" />
    <path
       style="fill:#aa4400"
       inkscape:connector-curvature="0"
       id="path93"
       transform="matrix(0.63291,0,0,0.76899,-47.04374,116.85527)"
       d="m -88.76011,505.83926 c 0,87.02579 -17.63708,157.57413 -39.39353,157.57413 -21.75645,0 -39.39353,-70.54834 -39.39353,-157.57413 0,-87.02579 17.63708,-157.57412 39.39353,-157.57412 21.75645,0 39.39353,70.54834 39.39353,157.57412 z" />
    <path
       style="fill:#ff6600"
       inkscape:connector-curvature="0"
       id="path95"
       transform="matrix(0.41772,0,0,0.61392,-74.62111,195.29237)"
       d="m -88.76011,505.83926 c 0,87.02579 -17.63708,157.57413 -39.39353,157.57413 -21.75645,0 -39.39353,-70.54834 -39.39353,-157.57413 0,-87.02579 17.63708,-157.57412 39.39353,-157.57412 21.75645,0 39.39353,70.54834 39.39353,157.57412 z" />
  </g>
  <path
     inkscape:connector-curvature="0"
     style="fill:url(#linearGradient3857)"
     id="path97"
     d="m 8.5750408,122.44871 0,-95.344006 20.6040022,0 0,95.344006 z" />
  <path
     inkscape:connector-curvature="0"
     style="fill:url(#linearGradient3867)"
     id="path99"
     d="m 19.082828,4.9224091 c -5.819215,0 -10.5077872,3.690738 -10.5077872,8.2714929 l 0,14.142933 c 0.6525638,-0.09916 1.3333539,-0.153046 2.0237872,-0.153046 l 171.694952,0 0,-13.989887 c 0,-4.5807549 -4.67974,-8.2714929 -10.49895,-8.2714929 l -152.712002,0 z" />
  <path
     inkscape:connector-curvature="0"
     style="fill:url(#linearGradient3877)"
     id="path101"
     d="m 171.78599,143.85043 c 5.81922,0 10.50779,-3.55769 10.50779,-7.97332 l 0,-13.6331 c -0.65257,0.0956 -1.33336,0.14753 -2.02379,0.14753 l -171.6949492,0 0,13.48557 c 0,4.41563 4.6797352,7.97332 10.4989502,7.97332 l 152.711999,0 z" />
  <path
     inkscape:connector-curvature="0"
     style="fill:url(#linearGradient3887)"
     id="path103"
     d="m 161.68978,122.44871 0,-95.344006 20.604,0 0,95.344006 z" />
  <path
     style="fill:#4d4d4d"
     inkscape:connector-curvature="0"
     id="path145"
     d="m 26.475704,124.08375 c 0,0.25025 -0.178578,0.45312 -0.398866,0.45312 -0.220287,0 -0.398865,-0.20287 -0.398865,-0.45312 0,-0.25025 0.178578,-0.45312 0.398865,-0.45312 0.220288,0 0.398866,0.20287 0.398866,0.45312 z" />
  <path
     style="fill:#4d4d4d"
     inkscape:connector-curvature="0"
     id="path147"
     d="m 12.502488,123.79741 c 0,0.25025 -0.178578,0.45312 -0.398866,0.45312 -0.220287,0 -0.398865,-0.20287 -0.398865,-0.45312 0,-0.25025 0.178578,-0.45312 0.398865,-0.45312 0.220288,0 0.398866,0.20287 0.398866,0.45312 z" />
  <path
     style="fill:#4d4d4d"
     inkscape:connector-curvature="0"
     id="path149"
     d="m 178.89207,120.62578 c 0,0.25025 -0.17858,0.45312 -0.39887,0.45312 -0.22028,0 -0.39886,-0.20287 -0.39886,-0.45312 0,-0.25025 0.17858,-0.45312 0.39886,-0.45312 0.22029,0 0.39887,0.20287 0.39887,0.45312 z" />
  <path
     style="fill:#4d4d4d"
     inkscape:connector-curvature="0"
     id="path151"
     d="m 164.91885,120.33945 c 0,0.25025 -0.17858,0.45312 -0.39887,0.45312 -0.22028,0 -0.39886,-0.20287 -0.39886,-0.45312 0,-0.25025 0.17858,-0.45312 0.39886,-0.45312 0.22029,0 0.39887,0.20287 0.39887,0.45312 z" />
  <path
     style="fill:#4d4d4d"
     inkscape:connector-curvature="0"
     id="path153"
     d="m 178.89207,25.933647 c 0,0.250251 -0.17858,0.45312 -0.39887,0.45312 -0.22028,0 -0.39886,-0.202869 -0.39886,-0.45312 0,-0.25025 0.17858,-0.453118 0.39886,-0.453118 0.22029,0 0.39887,0.202868 0.39887,0.453118 z" />
  <path
     style="fill:#4d4d4d"
     inkscape:connector-curvature="0"
     id="path155"
     d="m 164.91885,25.647312 c 0,0.250251 -0.17858,0.45312 -0.39887,0.45312 -0.22028,0 -0.39886,-0.202869 -0.39886,-0.45312 0,-0.25025 0.17858,-0.453118 0.39886,-0.453118 0.22029,0 0.39887,0.202868 0.39887,0.453118 z" />
  <path
     style="fill:#4d4d4d"
     inkscape:connector-curvature="0"
     id="path157"
     d="m 25.943709,29.657609 c 0,0.250251 -0.178578,0.453119 -0.398866,0.453119 -0.220287,0 -0.398865,-0.202868 -0.398865,-0.453119 0,-0.250251 0.178578,-0.453119 0.398865,-0.453119 0.220288,0 0.398866,0.202868 0.398866,0.453119 z" />
  <path
     style="fill:#4d4d4d"
     inkscape:connector-curvature="0"
     id="path159"
     d="m 11.970493,29.371274 c 0,0.250251 -0.178578,0.453119 -0.398866,0.453119 -0.220287,0 -0.398865,-0.202868 -0.398865,-0.453119 0,-0.250251 0.178578,-0.453119 0.398865,-0.453119 0.220288,0 0.398866,0.202868 0.398866,0.453119 z" />
  <path
     style="fill:#ffffff"
     inkscape:connector-curvature="0"
     id="path161"
     d="m 157.21604,88.321125 c -0.82295,0 -1.48059,0.833176 -1.48059,1.864712 l 0,30.065173 2.96823,0 0,-30.065173 c 0,-1.031536 -0.6647,-1.864712 -1.48764,-1.864712 z" />
</svg>
