<?xml version="1.0" encoding="utf-8"?>
<svg id="svg13965" width="128" height="128" xmlns="http://www.w3.org/2000/svg">
  <defs id="defs13967">
    <radialGradient id="radialGradient13963" gradientUnits="userSpaceOnUse" gradientTransform="matrix(1.4081561e-6,3.053388,-1.5069009,1.1922402e-6,1771.5661,-1156.574)" cx="621.12109" cy="758.49609" r="31.573921">
      <stop style="stop-color:#ffffff;stop-opacity:0.79487181;" offset="0" id="stop3938"/>
      <stop id="stop25033" offset="0.58" style="stop-color:#ffffff;stop-opacity:0.60000002;"/>
      <stop style="stop-color:#ffffff;stop-opacity:0;" offset="1" id="stop3940"/>
    </radialGradient>
    <radialGradient id="radialGradient13961" gradientUnits="userSpaceOnUse" gradientTransform="matrix(-0.9243675,0.9472303,-0.9204591,-0.9413737,1936.2697,941.74978)" cx="621.44629" cy="796.50952" r="31.573921">
      <stop style="stop-color:#dadada;stop-opacity:1;" offset="0" id="stop3928"/>
      <stop style="stop-color:#ffffff;stop-opacity:0;" offset="1" id="stop3930"/>
    </radialGradient>
    <filter id="filter4066">
      <feGaussianBlur stdDeviation="0.3194633" id="feGaussianBlur4068"/>
    </filter>
    <radialGradient id="radialGradient13959" gradientUnits="userSpaceOnUse" gradientTransform="matrix(-0.840394,0.8439202,-0.8143877,-0.8499287,1799.7216,930.29079)" cx="628.49878" cy="789.59467" r="31.573921">
      <stop id="stop25065" offset="0" style="stop-color:#ffffff;stop-opacity:1;"/>
      <stop style="stop-color:#eaeaea;stop-opacity:1;" offset="0.4569" id="stop25067"/>
      <stop style="stop-color:#a0a0a0;stop-opacity:1;" offset="0.7941" id="stop25069"/>
      <stop id="stop25071" offset="1" style="stop-color:#414141;stop-opacity:1;"/>
    </radialGradient>
    <filter id="filter25003">
      <feGaussianBlur stdDeviation="1.2778532" id="feGaussianBlur25005"/>
    </filter>
  </defs>
  <rect x="-31.143" y="14.571" width="128" height="128" style="fill:none;fill-opacity:1;stroke:none;stroke-width:2;stroke-miterlimit:4;stroke-dasharray:none;stroke-opacity:1" id="rect13941" transform="matrix(1, 0, 0, 1, 31.142827987670913, -14.571450233459473)"/>
  <path transform="matrix(1.8686306476593018, 0, 0, 1.8253180980682373, -1110.599847793579, -1377.2855615615845)" d="M 660.16248,789.60785 A 31.573921,32.323132 0 1 1 597.01464,789.60785 A 31.573921,32.323132 0 1 1 660.16248,789.60785 z" id="path13943" style="opacity:0.5;fill:#333333;fill-opacity:1;stroke:none;stroke-width:2;stroke-miterlimit:4;stroke-dasharray:none;stroke-opacity:1;filter:url(#filter25003)"/>
  <path style="fill:url(#radialGradient13959);fill-opacity:1;stroke:none;stroke-width:2;stroke-miterlimit:4;stroke-dasharray:none;stroke-opacity:1;filter:url(#filter4066)" id="path13945" d="M 660.16248,789.60785 A 31.573921,32.323132 0 1 1 597.01464,789.60785 A 31.573921,32.323132 0 1 1 660.16248,789.60785 z" transform="matrix(1.8686307668685913, 0, 0, 1.8253180980682373, -1110.5999698638916, -1377.2855615615845)"/>
  <path transform="matrix(1.8099114894866943, 0, 0, 1.767960071563721, -1073.689691543579, -1331.9950342178345)" d="M 660.16248,789.60785 A 31.573921,32.323132 0 1 1 597.01464,789.60785 A 31.573921,32.323132 0 1 1 660.16248,789.60785 z" id="path13947" style="fill:url(#radialGradient13961);fill-opacity:1;stroke:none;stroke-width:2;stroke-miterlimit:4;stroke-dasharray:none;stroke-opacity:1"/>
  <g transform="matrix(0.172015, 0, 0, 0.172015, 2.709391, -29.0222)" id="layer1">
    <path d="M 312.32408,254.29303 L 497.87767,584.55178 L 291.61277,584.66663 L 252.04899,655.38029 L 617.26698,655.43727 L 394.46457,254.0866 L 312.32408,254.29303 z " style="fill:#ffffff;fill-opacity:1;fill-rule:evenodd;stroke:#000000;stroke-width:1px;stroke-linecap:butt;stroke-linejoin:round;stroke-opacity:1" id="path3214"/>
    <path d="M 312.31392,254.26591 L 91.923882,655.37223 L 132.32998,728.10322 L 315.16759,396.77318 L 417.193,584.66155 L 498.0052,584.66155 L 312.31392,254.26591 z " style="fill:#7d7e7c;fill-opacity:1;fill-rule:evenodd;stroke:#000000;stroke-width:1px;stroke-linecap:butt;stroke-linejoin:round;stroke-opacity:1" id="path4185"/>
    <path d="M 315.20979,396.83568 L 355.50104,471.05493 L 251.87272,655.43409 L 617.28788,655.62366 L 578.81741,730.12352 L 132.3464,728.07665 L 315.20979,396.83568 z " style="fill:#000000;fill-opacity:1;fill-rule:evenodd;stroke:#000000;stroke-width:1px;stroke-linecap:butt;stroke-linejoin:round;stroke-opacity:1" id="path5156"/>
  </g>
  <path style="fill:url(#radialGradient13963);fill-opacity:1;stroke:none;stroke-width:2;stroke-miterlimit:4;stroke-dasharray:none;stroke-opacity:1" id="path13951" d="M 660.16248,789.60785 A 31.573921,32.323132 0 1 1 597.01464,789.60785 A 31.573921,32.323132 0 1 1 660.16248,789.60785 z" transform="matrix(1.1994867324829102, 0, 0, 0.8203424215316772, -689.9834537506105, -613.8339014053346)"/>
</svg>